<?xml version="1.0" encoding="UTF-8" standalone="no"?>
<svg
   xmlns:dc="http://purl.org/dc/elements/1.1/"
   xmlns:cc="http://creativecommons.org/ns#"
   xmlns:rdf="http://www.w3.org/1999/02/22-rdf-syntax-ns#"
   xmlns:svg="http://www.w3.org/2000/svg"
   xmlns="http://www.w3.org/2000/svg"
   xmlns:sodipodi="http://sodipodi.sourceforge.net/DTD/sodipodi-0.dtd"
   xmlns:inkscape="http://www.inkscape.org/namespaces/inkscape"
   viewBox="0 0 240.17999 215.04173"
   height="215.04173"
   width="240.17999"
   xml:space="preserve"
   id="svg2"
   version="1.1"
   sodipodi:docname="cover.svg"
   inkscape:version="0.92.1 r15371"><sodipodi:namedview
     pagecolor="#ffffff"
     bordercolor="#666666"
     borderopacity="1"
     objecttolerance="10"
     gridtolerance="10"
     guidetolerance="10"
     inkscape:pageopacity="0"
     inkscape:pageshadow="2"
     inkscape:window-width="1536"
     inkscape:window-height="928"
     id="namedview740"
     showgrid="false"
     inkscape:zoom="1.0012632"
     inkscape:cx="153.48176"
     inkscape:cy="147.77419"
     inkscape:window-x="0"
     inkscape:window-y="0"
     inkscape:window-maximized="0"
     inkscape:current-layer="g12" /><metadata
     id="metadata8"><rdf:RDF><cc:Work
         rdf:about=""><dc:format>image/svg+xml</dc:format><dc:type
           rdf:resource="http://purl.org/dc/dcmitype/StillImage" /></cc:Work></rdf:RDF></metadata><defs
     id="defs6"><clipPath
       id="clipPath406"
       clipPathUnits="userSpaceOnUse"><path
         id="path404"
         d="m 6744.78,4542.07 c -14.27,-5.02 -22.11,-10.85 -39.18,-8.94 -27.18,5.58 -31.6,23.49 -31.6,23.49 0,0 37.62,21.08 70.78,-14.55"
         inkscape:connector-curvature="0" /></clipPath><clipPath
       id="clipPath424"
       clipPathUnits="userSpaceOnUse"><path
         id="path422"
         d="m 6791.7,4542.07 c 14.28,-5.02 22.13,-10.85 39.19,-8.94 27.18,5.58 31.59,23.49 31.59,23.49 0,0 -37.61,21.08 -70.78,-14.55"
         inkscape:connector-curvature="0" /></clipPath></defs><g
     transform="matrix(1.3333333,0,0,-1.3333333,-247.33733,261.9455)"
     id="g10"><g
       transform="scale(0.1)"
       id="g12"><path
         id="path1118"
         style="fill:#662820;fill-opacity:1;fill-rule:nonzero;stroke:none"
         d="m 2744.75,1124.34 c -1.19,-14.13 -4.35,-29.57 -10.81,-45.58 -3.08,-8.14 -7.05,-16.41 -12.03,-24.68 C 2678.04,980.301 2654,890.922 2654,890.922 c -36.93,8.637 -73.78,17.476 -110.52,26.609 -27.7,6.778 -55.92,14.047 -79.86,29.289 -59.28,37.692 -77.99,117.21 -62.93,184.75 4.77,21.48 12.36,41.99 21.66,61.85 5.33,11.47 11.36,22.67 17.79,33.77 7.4,12.81 15.51,25.34 23.82,37.66 l 0.1,0.01 c 11.15,16.58 22.9,32.85 34.56,48.93 l 236.11,-116.7 c 0,0 4.66,-10.43 7.82,-27.38 2.19,-12.17 3.72,-27.75 2.2,-45.37"
         inkscape:connector-curvature="0" /><path
         id="path1120"
         style="fill:#5b241e;fill-opacity:1;fill-rule:nonzero;stroke:none"
         d="m 2762.87,1077.4 c -9.61,0.26 -19.32,0.72 -28.93,1.36 -58.67,3.91 -116.74,14.52 -174.6,25.04 -24.77,4.52 -49.55,9.04 -74.32,13.56 2.39,13.94 4.87,27.88 7.27,41.72 -25.69,5.4 -49.98,17.24 -69.94,34.34 5.33,11.47 11.36,22.67 17.79,33.77 7.4,12.81 15.51,25.34 23.82,37.66 l 0.1,0.01 c 94.98,-23.75 182.67,-74.92 278.49,-95.15 5.32,-1.22 10.74,-2.24 16.15,-3.16 3.16,-29.66 4.51,-59.43 4.17,-89.15"
         inkscape:connector-curvature="0" /><path
         id="path1122"
         style="fill:#5b241e;fill-opacity:1;fill-rule:nonzero;stroke:none"
         d="m 2910.37,1338.6 c -15.23,-14.8 -30.46,-29.61 -45.69,-44.41 -12.86,-12.5 -26.32,-26.05 -30.18,-43.56 -3.21,-14.52 0.79,-29.77 7.14,-43.22 16.94,-35.88 50.34,-63.38 60.91,-101.62 6.64,-24.02 3.43,-49.52 4.73,-74.41 3.48,-66.63 38.99,-126.79 73.53,-183.88 38.25,-63.23 76.5,-126.469 114.76,-189.711 10.62,-1.809 51.05,6.301 51.05,6.301 0,0 -128.08,322.129 -150.61,490.31 -10.76,80.36 -18.23,165.68 -65.84,231.29"
         inkscape:connector-curvature="0" /><path
         id="path1124"
         style="fill:#e7513b;fill-opacity:1;fill-rule:nonzero;stroke:none"
         d="m 2941.51,1369.62 c 9.82,-5.28 15.12,-16.08 19.79,-26.2 15.02,-32.53 30.05,-65.06 45.08,-97.59 -39.34,-29.61 -89.32,-44.75 -138.47,-41.94"
         inkscape:connector-curvature="0" /><path
         id="path1126"
         style="fill:#333725;fill-opacity:1;fill-rule:nonzero;stroke:none"
         d="m 3149.53,585.141 c 14.84,-0.801 28.71,1.64 42.55,4.3 -14.41,19.528 -28.81,39.079 -43.22,58.61 9.03,-3.93 18.38,-7.91 28.22,-7.91 9.84,0.011 20.39,5.097 23.65,14.39 -17.06,0.457 -30.79,13.278 -44.24,23.789 -13.45,10.512 -31.72,19.578 -46.94,11.86 l -19.73,-3.289 c -6.84,-16.442 -12.91,-33.469 -14.28,-51.231 -0.64,-8.23 -0.17,-16.398 0.92,-24.531 21.34,-16.359 45.33,-24.481 73.07,-25.988"
         inkscape:connector-curvature="0" /><path
         id="path1128"
         style="fill:#972d22;fill-opacity:1;fill-rule:nonzero;stroke:none"
         d="m 3230.7,580.441 c -1.25,-9.679 -4.41,-18.941 -9.58,-27.211 -1.08,-1.73 -2.32,-3.539 -4.23,-4.25 -1.84,-0.679 -3.89,-0.171 -5.79,0.352 -57.06,15.469 -115.54,31.629 -163.31,66.477 -1.81,1.32 -3.71,2.812 -4.39,4.953 -0.69,2.16 0.02,4.476 0.73,6.636 4.33,13.161 8.8,26.614 17.32,37.543 2.26,2.899 4.88,5.668 8.26,7.141 6.6,2.887 14.19,0.188 20.82,-2.652 43.43,-18.481 82.18,-45.789 122.08,-70.981 7.15,-4.508 18.75,-12.91 18.09,-18.008"
         inkscape:connector-curvature="0" /><path
         id="path1130"
         style="fill:#333725;fill-opacity:1;fill-rule:nonzero;stroke:none"
         d="m 3079.58,594.422 c 10.12,12.168 21.43,23.348 33.7,33.348 1.87,1.531 3.97,3.089 6.38,3.062 3.48,-0.051 6.08,-3.602 6.34,-7.07 0.25,-3.473 -1.22,-6.813 -2.69,-9.953 -5.77,-12.348 -12.11,-24.43 -18.98,-36.188 6.76,15.289 19.55,27.82 34.97,34.258 3.04,1.269 7.79,1.461 8.36,-1.789 0.21,-1.188 -0.35,-2.371 -0.88,-3.449 -5.58,-11.282 -11.16,-22.559 -16.74,-33.852 7.18,6.473 14.92,12.32 23.1,17.461 2.46,1.551 5.11,3.082 8.01,3.109 2.91,0.039 6.04,-2 6.15,-4.898 0.07,-1.922 -1.11,-3.629 -2.25,-5.172 -4.14,-5.617 -8.28,-11.25 -12.42,-16.867 7.66,0.609 15.32,1.23 22.98,1.848 3.67,0.289 8.3,0.062 9.78,-3.309 2.16,-4.902 -4.71,-8.66 -9.97,-9.672 -9.18,-1.75 -18.49,-3.508 -27.82,-2.937 -27.1,1.679 -48.79,22.179 -67.9,41.468"
         inkscape:connector-curvature="0" /><path
         id="path1132"
         style="fill:#333725;fill-opacity:1;fill-rule:nonzero;stroke:none"
         d="m 3142.14,682.762 c -0.06,3.75 -21.98,129.679 -21.98,129.679 l -102.11,-26.562 66.81,-117.75 57.28,14.633"
         inkscape:connector-curvature="0" /><path
         id="path1134"
         style="fill:#ef3520;fill-opacity:1;fill-rule:nonzero;stroke:none"
         d="m 2700.76,874.629 c -27.28,-99.828 -59.58,-198.43 -96.8,-295.109 -18.27,-47.891 -41.09,-98.938 -87.02,-123.649 -30.85,-16.473 -67.43,-18.43 -102.61,-19.461 -58.69,-1.699 -117.39,-1.801 -176.02,-0.39 -67.93,1.75 -135.8,5.511 -203.5,11.48 -5.1,0.32 -10.22,0.84 -15.32,1.27 -5.09,12.019 -10.17,23.941 -15.25,35.871 10.44,3.66 20.27,8.41 29.79,13.859 47.99,27.43 87.3,72.34 141.64,83.672 19.94,4.109 40.15,3.418 60.39,0.719 20.45,-2.68 40.92,-7.27 61.27,-10.661 40.41,-6.781 86.23,-7.48 117.74,18.102 31.71,25.688 39.11,71.309 31.61,110.797 -7.51,39.492 -27.26,75.691 -41.44,113.48 -32.63,86.903 -35.52,184.18 -7.97,272.811 l 303.49,-212.791"
         inkscape:connector-curvature="0" /><path
         id="path1136"
         style="fill:#5b241e;fill-opacity:1;fill-rule:nonzero;stroke:none"
         d="m 2744.74,1124.33 c -9.33,8.55 -24.83,21.31 -45.23,34.01 -35.34,21.96 -104.91,-6.61 -160.21,12.55 -35.49,12.25 -75.2,38.86 -99.17,56.29 17.44,29.97 38.11,58.48 58.48,86.6 l 236.11,-116.7 c 0,0 13.67,-30.6 10.02,-72.75"
         inkscape:connector-curvature="0" /><path
         id="path1138"
         style="fill:#2a1818;fill-opacity:1;fill-rule:nonzero;stroke:none"
         d="m 3150.92,1371.71 c 1.63,-0.37 2.77,-1.15 3.69,-2.08 22.04,-4.12 44.66,-4.83 66.52,-1.47 19.1,6.58 35.88,19.67 46.75,36.08 15.15,22.88 19.6,51.22 15.65,77.94 l -155.01,-52.97 c -15.28,-9.86 -22.48,-26.3 -24.46,-43.99 15.1,-6.28 30.75,-9.89 46.86,-13.51"
         inkscape:connector-curvature="0" /><path
         id="path1140"
         style="fill:#662820;fill-opacity:1;fill-rule:nonzero;stroke:none"
         d="m 3108.82,1345.2 c 3.72,3.61 10.41,1.96 14.21,-1.57 3.8,-3.53 5.87,-8.42 9.21,-12.34 3.33,-3.94 9.03,-6.98 13.83,-4.83 0.99,4.81 0.11,9.8 0.64,14.68 1.57,14.22 14.74,24.81 28.38,30.68 13.63,5.86 28.68,8.68 41.58,15.92 14.14,7.95 24.79,20.87 31.49,35.2 6.69,14.33 9.64,30.03 10.68,45.68"
         inkscape:connector-curvature="0" /><path
         id="path1142"
         style="fill:#662820;fill-opacity:1;fill-rule:nonzero;stroke:none"
         d="m 3257.95,1441.41 c -10.77,-15.17 -25.69,-27.2 -40.62,-38.72 -35.78,-27.36 -75.18,-53.96 -120.71,-58.96 -30.15,-3.36 -71.36,-9.59 -85.61,39.2 l -0.21,1 c -0.95,3.18 -1.7,6.57 -2.36,10.16 -0.12,1.4 -0.85,2.98 -2.07,4.37 -4.78,5.22 -17.02,8.14 -33.77,-8.72 l -2.56,-2.64 c -0.88,-1.01 -19.91,-18.81 -32.48,-33.9 -12.67,-15.19 -123.42,118.13 -123.42,118.13 l 22.1,91.65 52.47,-4.1 c 14.04,-2.49 29.01,-0.56 41.71,5.63 l 52.16,29.61 c 9.19,33.34 36.78,60.26 69.35,75.47 32.38,15.2 69.31,19.66 105.33,19.11 15.6,-0.16 31.42,-1.32 45.71,-7.3 34.93,-14.57 50.81,-52.93 61.25,-87.98 14.98,-50.47 24.57,-108.63 -6.27,-152.01"
         inkscape:connector-curvature="0" /><path
         id="path1144"
         style="fill:#662820;fill-opacity:1;fill-rule:nonzero;stroke:none"
         d="m 3139.75,858.441 c -6.93,73.489 -79.28,122.188 -147.07,153.769 -158.95,74.27 -334.1,114.9 -510.17,118.31 l -74.61,26.66 c 0,0 -21.39,-40.33 -27.05,-108.72 -5.75,-68.401 57.78,-129.14 190.05,-152.12 132.37,-22.981 256.64,-72.789 282.51,-76.988 43.91,-7.133 92.43,-14.09 121.44,-47.352 -45.28,-27.691 -92.34,-57.121 -119.85,-102.238 -19.22,-31.5 -27.36,-68.231 -35.11,-104.25 -10.56,-48.262 -21.03,-96.633 -31.49,-144.903 -0.47,-2.308 -1.03,-4.609 -1.5,-6.929 l -0.43,-2.129 c 9.78,2.398 20.7,2.39 30.16,2.82 6.23,0.27 12.78,0.738 19.36,1.078 113.12,72.16 186.94,191 256.26,305.442 25.65,42.398 52.14,88.5 47.5,137.55"
         inkscape:connector-curvature="0" /><path
         id="path1146"
         style="fill:#f0412e;fill-opacity:1;fill-rule:nonzero;stroke:none"
         d="m 3092.25,720.898 c -19.41,-32.097 -39.21,-64.496 -60.14,-96.128 -55.09,18.859 -108.94,41.14 -162.22,65.531 27.89,33.828 67.02,58.429 104.97,81.711 -29.02,33.258 -77.53,40.218 -121.44,47.359 -25.87,4.188 -150.14,54 -282.51,76.981 -132.27,22.988 -195.8,83.718 -190.05,152.118 5.65,68.39 27.04,108.72 27.04,108.72 l 74.62,-26.66 c 58.52,-1.11 116.81,-6.32 174.56,-15.64 65.46,-10.4 130.01,-25.92 192.83,-46.45 48.75,-15.86 96.44,-34.63 142.78,-56.22 67.69,-31.579 140.14,-80.279 147.07,-153.771 4.64,-49.039 -21.85,-95.148 -47.51,-137.551"
         inkscape:connector-curvature="0" /><path
         id="path1148"
         style="fill:#ef3520;fill-opacity:1;fill-rule:nonzero;stroke:none"
         d="m 3122.54,852.68 c -14.36,-9.321 -33.23,-4.41 -49.52,0.851 -74.27,24.059 -148.65,48.02 -222.92,71.989 -19.7,6.402 -39.4,12.8 -58.04,21.718 -67,32.082 -113.88,95.962 -134.98,167.652 65.46,-10.4 130.01,-25.92 192.83,-46.45 2.56,-4.07 5.32,-8.02 8.28,-11.78 34.38,-43.88 90.09,-63.93 135.68,-95.941 37.51,-26.418 70.27,-62.43 114.46,-74.75 l 14.21,-33.289"
         inkscape:connector-curvature="0" /><path
         id="path1150"
         style="fill:#2f1919;fill-opacity:1;fill-rule:nonzero;stroke:none"
         d="m 2978.33,1590.09 c 2.45,21.6 8.09,42.85 16.67,62.83 4.55,10.62 10,21 17.64,29.67 22.24,25.26 58.61,31.97 92.21,33.95 49.81,2.93 104.25,-2.92 140.75,-36.94 30.22,-28.17 42.57,-70.97 45.28,-112.2 2.31,-35.04 -1.38,-70.16 -5.05,-105.1 -0.49,-4.59 -1.03,-9.35 -3.46,-13.28 -2.57,-4.13 -6.9,-6.79 -11.19,-9.06 -30.82,-16.28 -68.29,-19.46 -101.41,-8.63 -33.13,10.84 -61.47,35.55 -76.71,66.89 -6.27,12.9 -10.66,27.2 -20.69,37.44 -11.39,11.63 -28,15.98 -43.25,21.67 -15.24,5.7 -31.2,14.69 -36.21,30.17"
         inkscape:connector-curvature="0" /><path
         id="path1152"
         style="fill:#2f1919;fill-opacity:1;fill-rule:nonzero;stroke:none"
         d="m 3063.85,1710.23 c -35.68,-7.35 -59.56,-40.15 -79.04,-70.93 -19.47,-30.78 -41,-64.42 -75.7,-75.49 28.26,-21.22 66.02,-27.19 100.89,-21.49 34.88,5.72 67.21,22.15 96.38,42.09 14.46,9.89 28.72,21.16 36.91,36.64"
         inkscape:connector-curvature="0" /><path
         id="path1154"
         style="fill:#5b241e;fill-opacity:1;fill-rule:nonzero;stroke:none"
         d="m 3092.77,1512.85 c -5.8,11.88 -10.24,24.37 -11.64,37.47 l -1.12,1.07 c -6.72,5.28 -16.06,6.59 -24.36,4.49 -8.29,-2.09 -15.57,-7.28 -21.28,-13.63 -3.23,-3.6 -6.04,-7.62 -7.89,-12.08 -3.79,-9.14 -3.21,-19.99 1.53,-28.69 l 0.15,-5.18 -2.35,-0.36 c 23.01,2.2 45.61,8.06 66.96,16.91"
         inkscape:connector-curvature="0" /><path
         id="path1156"
         style="fill:#2f1919;fill-opacity:1;fill-rule:nonzero;stroke:none"
         d="m 3090.66,1545.85 c 6.26,-9.65 3.34,-24.07 -6.18,-30.53 -8.58,-5.81 -19.9,-4.99 -29.81,-8.04 -15.63,-4.82 -27.22,-20.5 -27.25,-36.86 4.49,7.94 14.6,11.07 23.71,10.59 9.1,-0.48 17.79,-3.8 26.72,-5.64 17.61,-3.63 36.75,-1.22 51.96,8.37 15.2,9.6 25.89,26.73 25.97,44.71"
         inkscape:connector-curvature="0" /><path
         id="path1158"
         style="fill:#f9f6e3;fill-opacity:1;fill-rule:nonzero;stroke:none"
         d="m 3116.73,1427.78 c 3.04,-1.67 6.08,-3.34 9.12,-5.01 4.04,-2.22 8.09,-4.45 11.84,-7.12 8.82,-6.28 15.89,-14.99 20.2,-24.93 -11.34,-2.66 -22.49,-6.08 -33.38,-10.22 -6.24,14.52 -8.6,30.68 -6.77,46.38"
         inkscape:connector-curvature="0" /><path
         id="path1160"
         style="fill:#2f1919;fill-opacity:1;fill-rule:nonzero;stroke:none"
         d="m 3152.88,1400.21 c -10.07,-0.1 -22.07,0.06 -25.56,-12.23 -0.84,-3 1.88,-6.46 4.79,-6.14 8.05,0.87 15.92,2.07 22.94,6.6 l 0.87,0.89 c -0.95,3.64 -1.75,7.34 -3.04,10.88"
         inkscape:connector-curvature="0" /><path
         id="path1162"
         style="fill:#51211c;fill-opacity:1;fill-rule:nonzero;stroke:none"
         d="m 3126.92,1381.16 c -6.01,14.7 -8.24,29.9 -6.68,45.72 0.32,3.21 -4.68,3.18 -5,0 -1.6,-16.22 0.69,-31.96 6.86,-47.06 1.21,-2.93 6.04,-1.65 4.82,1.34"
         inkscape:connector-curvature="0" /><path
         id="path1164"
         style="fill:#51211c;fill-opacity:1;fill-rule:nonzero;stroke:none"
         d="m 3116.68,1424.75 c 16.9,-9.3 31.88,-17.91 40.27,-36.18 1.34,-2.91 5.65,-0.38 4.31,2.53 -8.75,19.06 -24.36,28.24 -42.06,37.96 -2.82,1.55 -5.34,-2.77 -2.52,-4.31"
         inkscape:connector-curvature="0" /><path
         id="path1166"
         style="fill:#51211c;fill-opacity:1;fill-rule:nonzero;stroke:none"
         d="m 3166.11,1391.52 c 6.57,3.02 13.03,6.24 19.39,9.67 2.83,1.52 0.31,5.84 -2.53,4.32 -6.36,-3.43 -12.82,-6.65 -19.38,-9.67 -2.92,-1.34 -0.38,-5.65 2.52,-4.32"
         inkscape:connector-curvature="0" /><path
         id="path1168"
         style="fill:#51211c;fill-opacity:1;fill-rule:nonzero;stroke:none"
         d="m 3167.94,1394.68 c -1.22,7.73 -8.41,14.67 -13.82,19.87 -6.4,6.17 -13.63,11.28 -21.46,15.44 -2.85,1.5 -5.37,-2.81 -2.53,-4.32 6.83,-3.62 13.2,-7.93 18.88,-13.17 5.34,-4.9 12.95,-11.76 14.11,-19.15 0.49,-3.17 5.31,-1.83 4.82,1.33"
         inkscape:connector-curvature="0" /><path
         id="path1170"
         style="fill:#2a1818;fill-opacity:1;fill-rule:nonzero;stroke:none"
         d="m 3197.14,1406.08 c -3.57,20.19 -16.55,38.51 -34.43,48.55 14.29,-2.15 26.77,-11.11 36.49,-21.8 4.05,-4.45 7.88,-9.6 8.47,-15.58 0.58,-5.99 -3.34,-12.76 -9.34,-13.24"
         inkscape:connector-curvature="0" /><path
         id="path1172"
         style="fill:#60211f;fill-opacity:1;fill-rule:nonzero;stroke:none"
         d="m 3081.49,1387.71 c -0.59,0 -1.19,0.07 -1.77,0.23 -1.77,0.5 -3.15,1.85 -4.45,3.13 -3.17,3.18 -6.48,6.59 -7.5,10.95 l 1.59,-7.1 c -7.64,3.72 -12.39,12.35 -12.17,20.84 0.21,8.51 5.06,16.58 12.04,21.44 2.33,1.61 4.93,2.92 7.72,3.35 0.72,0.11 1.44,0.16 2.15,0.16 5.29,0 10.37,-2.85 14.84,-5.86 3.54,-2.37 7.09,-5.03 9.16,-8.75 1.65,-2.96 2.25,-6.35 2.83,-9.68 0.98,-5.72 1.91,-11.89 -0.73,-17.05 -3.64,-7.12 -12.46,-9.52 -20.28,-11.19 -1.12,-0.23 -2.28,-0.47 -3.43,-0.47"
         inkscape:connector-curvature="0" /><path
         id="path1174"
         style="fill:#5c1d1e;fill-opacity:1;fill-rule:nonzero;stroke:none"
         d="m 3088.56,1343.45 c -2.14,-2.98 -5.48,-4.77 -8.85,-4.75 -1.51,0.01 -3.04,0.38 -4.32,1.32 -2.35,1.72 -3.43,5.02 -3.87,8.18 -1.1,7.84 0.92,16.16 5.37,22.17 3.17,-8.9 6.08,-17.92 8.74,-27.04"
         inkscape:connector-curvature="0" /><path
         id="path1176"
         style="fill:#511b1c;fill-opacity:1;fill-rule:nonzero;stroke:none"
         d="m 3078.48,1368.88 0.36,-1.53 c 4.81,-3.55 10.54,-5.73 15.33,-9.31 4.8,-3.58 8.77,-9.33 7.66,-15.21 -3.73,-0.08 -7.46,-0.16 -11.19,-0.24 -1.84,-0.04 -3.77,-0.06 -5.37,0.85 -2.58,1.47 -3.37,4.78 -3.67,7.74 -0.3,2.95 -0.47,6.19 -2.47,8.38"
         inkscape:connector-curvature="0" /><path
         id="path1178"
         style="fill:#3f1818;fill-opacity:1;fill-rule:nonzero;stroke:none"
         d="m 3076.23,1368.85 c 1.11,-6.7 2.78,-13.26 5.18,-19.63 0.68,-1.82 1.57,-6.94 4.38,-6.32 1.57,0.34 0.91,2.75 -0.66,2.41 l -3.91,12.47 c -1.1,3.87 -1.92,7.78 -2.58,11.73 -0.27,1.58 -2.68,0.92 -2.41,-0.66"
         inkscape:connector-curvature="0" /><path
         id="path1180"
         style="fill:#51211c;fill-opacity:1;fill-rule:nonzero;stroke:none"
         d="m 3112.4,1355.79 c -1.36,0.86 -1.81,2.12 -1.37,3.79 0.74,3.13 -4.08,4.46 -4.82,1.33 -0.8,-3.35 0,-6.37 2.65,-8.65 2.42,-2.1 5.98,1.42 3.54,3.53"
         inkscape:connector-curvature="0" /><path
         id="path1182"
         style="fill:#51211c;fill-opacity:1;fill-rule:nonzero;stroke:none"
         d="m 3113.29,1361.41 c 1.42,0.6 2.87,0.77 4.35,0.46 3.21,-0.25 3.19,4.75 0,5 -2.08,0.18 -3.71,-0.02 -5.68,-0.64 -3.06,-0.97 -1.75,-5.8 1.33,-4.82"
         inkscape:connector-curvature="0" /><path
         id="path1184"
         style="fill:#5b241e;fill-opacity:1;fill-rule:nonzero;stroke:none"
         d="m 3006.37,1398.46 c -4.78,5.22 -17.02,8.14 -33.77,-8.72 l -0.39,-0.4 c -2.38,18.06 6.44,36.7 18.83,50.59 7.18,8.01 15.47,14.93 24.69,20.58 -9.91,-18.86 -13.28,-41.12 -9.36,-62.05"
         inkscape:connector-curvature="0" /><path
         id="path1186"
         style="fill:#401c1b;fill-opacity:1;fill-rule:nonzero;stroke:none"
         d="m 3269.52,1456.3 c -82.34,-13.2 -155.36,46.79 -158.46,130.01 -0.11,3.2 -5.11,3.22 -5,0 3.23,-86.75 79.17,-148.56 164.78,-134.84 3.17,0.51 1.83,5.34 -1.32,4.83"
         inkscape:connector-curvature="0" /><path
         id="path1188"
         style="fill:#401c1b;fill-opacity:1;fill-rule:nonzero;stroke:none"
         d="m 3107.36,1489.93 c -22.44,39.13 -30.9,82.36 -24.63,127.05 0.45,3.15 -4.37,4.5 -4.81,1.33 -6.47,-46.07 1.98,-90.54 25.13,-130.91 1.6,-2.79 5.92,-0.27 4.31,2.53"
         inkscape:connector-curvature="0" /><path
         id="path1190"
         style="fill:#401c1b;fill-opacity:1;fill-rule:nonzero;stroke:none"
         d="m 3275.52,1523.65 c -8.65,58.77 -57.52,106.79 -107.42,134.54 -2.81,1.57 -5.34,-2.75 -2.52,-4.31 48.81,-27.15 96.65,-74.06 105.12,-131.56 0.46,-3.17 5.28,-1.82 4.82,1.33"
         inkscape:connector-curvature="0" /><path
         id="path1192"
         style="fill:#401c1b;fill-opacity:1;fill-rule:nonzero;stroke:none"
         d="m 3194.48,1672.25 c 5.91,-2.38 11.04,-5.84 15.53,-10.35 2.28,-2.28 5.82,1.25 3.54,3.54 -5.14,5.15 -11,8.93 -17.74,11.63 -2.99,1.19 -4.29,-3.64 -1.33,-4.82"
         inkscape:connector-curvature="0" /><path
         id="path1194"
         style="fill:#401c1b;fill-opacity:1;fill-rule:nonzero;stroke:none"
         d="m 3237.18,1639.13 c 8.58,-8.11 15.71,-17.35 21.38,-27.71 1.55,-2.83 5.87,-0.31 4.32,2.53 -5.87,10.71 -13.29,20.32 -22.16,28.73 -2.34,2.2 -5.88,-1.32 -3.54,-3.55"
         inkscape:connector-curvature="0" /><path
         id="path1196"
         style="fill:#401c1b;fill-opacity:1;fill-rule:nonzero;stroke:none"
         d="m 3118.39,1655.73 c 6.49,-69.88 58.41,-126.94 116.93,-161 2.78,-1.63 5.3,2.69 2.52,4.31 -56.81,33.08 -108.13,88.67 -114.45,156.69 -0.29,3.19 -5.29,3.22 -5,0"
         inkscape:connector-curvature="0" /><path
         id="path1198"
         style="fill:#401c1b;fill-opacity:1;fill-rule:nonzero;stroke:none"
         d="m 3165.54,1604.27 c 8.21,-12.97 17.75,-24.9 28.63,-35.73 2.28,-2.28 5.81,1.25 3.53,3.53 -10.58,10.54 -19.86,22.11 -27.84,34.73 -1.72,2.71 -6.04,0.2 -4.32,-2.53"
         inkscape:connector-curvature="0" /><path
         id="path1200"
         style="fill:#401c1b;fill-opacity:1;fill-rule:nonzero;stroke:none"
         d="m 3222,1536.3 c 6.16,-6.68 14.37,-10.15 21.4,-15.72 9.08,-7.22 13.36,-17.97 17.38,-28.51 1.13,-2.98 5.97,-1.69 4.82,1.33 -3.55,9.31 -7.23,18.87 -13.98,26.39 -7.46,8.3 -18.53,11.86 -26.09,20.04 -2.19,2.38 -5.72,-1.17 -3.53,-3.53"
         inkscape:connector-curvature="0" /><path
         id="path1202"
         style="fill:#401c1b;fill-opacity:1;fill-rule:nonzero;stroke:none"
         d="m 2945.83,1561.74 c 29.06,11.13 45.13,39.01 59.54,65.04 1.56,2.81 -2.76,5.34 -4.32,2.52 -13.65,-24.65 -28.94,-52.16 -56.55,-62.74 -2.97,-1.14 -1.68,-5.97 1.33,-4.82"
         inkscape:connector-curvature="0" /><path
         id="path1204"
         style="fill:#401c1b;fill-opacity:1;fill-rule:nonzero;stroke:none"
         d="m 2995.51,1574.82 c 3.48,5.64 6.97,11.27 10.46,16.91 1.69,2.74 -2.63,5.26 -4.32,2.53 -3.49,-5.64 -6.98,-11.27 -10.46,-16.91 -1.7,-2.74 2.62,-5.26 4.32,-2.53"
         inkscape:connector-curvature="0" /><path
         id="path1206"
         style="fill:#401c1b;fill-opacity:1;fill-rule:nonzero;stroke:none"
         d="m 3023.4,1625.57 c 3.19,5.47 6.37,10.95 9.55,16.43 1.63,2.79 -2.7,5.3 -4.31,2.52 -3.19,-5.48 -6.37,-10.96 -9.55,-16.43 -1.62,-2.79 2.7,-5.31 4.31,-2.52"
         inkscape:connector-curvature="0" /><path
         id="path1208"
         style="fill:#401c1b;fill-opacity:1;fill-rule:nonzero;stroke:none"
         d="m 3029,1571.81 c 15.53,12.55 25.46,29.93 28.37,49.68 0.47,3.15 -4.35,4.51 -4.82,1.33 -2.79,-18.97 -12.16,-35.42 -27.09,-47.48 -2.5,-2.02 1.06,-5.54 3.54,-3.53"
         inkscape:connector-curvature="0" /><path
         id="path1210"
         style="fill:#401c1b;fill-opacity:1;fill-rule:nonzero;stroke:none"
         d="m 3049.11,1486.52 c 14.45,7.99 25.69,4.83 39.77,-2.03 2.88,-1.4 5.42,2.91 2.53,4.32 -7.07,3.44 -14.32,6.88 -22.2,7.85 -8.46,1.05 -15.34,-1.8 -22.62,-5.82 -2.82,-1.56 -0.3,-5.88 2.52,-4.32"
         inkscape:connector-curvature="0" /><path
         id="path1212"
         style="fill:#f46853;fill-opacity:1;fill-rule:nonzero;stroke:none"
         d="m 2470.04,1118.33 c -1.71,-43.04 27.23,-76.37 63.31,-96.15 48.62,-26.66 105.57,-41.18 157.77,-59.2 57.85,-19.968 115.85,-42.121 175.11,-57.589 16.69,-4.36 34.04,-6.559 49.81,-13.891 13.83,-6.41 27.04,-14.988 40.36,-22.43 27.23,-15.218 54.46,-30.441 81.69,-45.66 -0.6,2.281 -1.2,4.559 -1.8,6.84 -3.87,-7.52 -9.62,-13.121 -17.22,-16.82 -3.72,-2.192 -2.94,-7.961 1.19,-9.129 12.33,-3.512 21.88,1.597 13.27,-18.34 -2.53,-5.852 6.08,-10.949 8.63,-5.051 3.79,8.789 5.78,16.32 6.74,25.82 0.27,2.579 -2.5,5.149 -5,5 -7.11,-1.109 -14.11,-0.371 -20.98,2.211 0.4,-3.05 0.8,-6.101 1.2,-9.152 9.04,5.332 15.28,11.473 20.81,20.422 1.4,2.258 0.52,5.539 -1.8,6.828 -23.14,12.941 -46.28,25.883 -69.43,38.813 -21.09,11.8 -42.7,27.027 -65.7,34.718 -24.85,8.321 -51.2,12.461 -76.28,20.512 -27.72,8.906 -55.27,18.34 -82.84,27.688 -52.09,17.671 -104.09,35.628 -155.86,54.18 -50.88,18.22 -115.54,45.85 -112.98,110.38 0.25,6.44 -9.75,6.43 -10,0"
         inkscape:connector-curvature="0" /><path
         id="path1214"
         style="fill:#f46853;fill-opacity:1;fill-rule:nonzero;stroke:none"
         d="m 3031.68,774.922 c -27.1,-35.211 -52.71,-72.5 -84.93,-103.32 -4.66,-4.454 2.42,-11.52 7.07,-7.071 32.77,31.348 58.92,69.52 86.49,105.34 3.92,5.098 -4.76,10.09 -8.63,5.051"
         inkscape:connector-curvature="0" /><path
         id="path1216"
         style="fill:#f46853;fill-opacity:1;fill-rule:nonzero;stroke:none"
         d="m 2952.92,1251.53 c -36.67,-21.46 -64.73,-57.29 -76.5,-98.18 -4.85,-16.57 -8.26,-35.73 -22.72,-45.15 -7.23,-4.71 -14.91,-5.93 -22.92,-4.95 -17.73,1.93 -36.73,14.34 -54.14,21.88 -32.42,13.9 -69.17,10.34 -104.38,10.99 -7.01,0.1 -14.01,0.49 -20.92,0.99 -100.22,7.17 -197.51,51.58 -268.21,123.11 41.54,23.34 62.32,70.56 85.39,112.32 32.11,58.4 74.98,112.66 132.37,146.54 60.16,35.53 132.01,46.13 201.9,47.39 29.29,0.55 59.22,-0.59 86.97,-10.37 18.11,-66.03 36.32,-132.06 54.54,-198.19 l 0.51,-0.79 c -13.38,-34 -10.27,-74.06 8.11,-105.59"
         inkscape:connector-curvature="0" /><path
         id="path1218"
         style="fill:#e7513b;fill-opacity:1;fill-rule:nonzero;stroke:none"
         d="m 2830.78,1103.25 c -17.73,1.93 -36.73,14.34 -54.14,21.88 -32.42,13.9 -69.17,10.34 -104.38,10.99 -7.01,0.1 -14.01,0.49 -20.92,0.99 -4.2,19.43 -6.6,39.1 -7,58.8 -0.39,19.09 0.81,38.42 5.73,56.8 4.53,17.47 11.51,38.77 -1.39,51.38 -4.87,4.62 -12.22,7.81 -13.42,14.49 -0.44,2.49 0.22,5.11 0.88,7.72 4.07,15.57 8.13,31.23 12.19,46.89 5.38,20.78 11.05,42.17 24.19,59.17 12.66,16.3 31,26.99 48.94,37.26 25.78,14.79 53.25,30.12 82.96,29.57 -10.41,-104.27 -40.17,-211.44 -9.74,-311.68 8.32,-27.29 20.92,-52.99 33.41,-78.6 0.93,-1.89 1.86,-3.77 2.69,-5.66"
         inkscape:connector-curvature="0" /><path
         id="path1220"
         style="fill:#662820;fill-opacity:1;fill-rule:nonzero;stroke:none"
         d="m 2907.13,1257.23 c 2.88,45.06 -3.79,90.7 -19.43,133.06 -4.83,13.09 -11.31,26.77 -23.53,33.5 -7.95,4.37 -17.3,5.97 -26.38,5.75 -56.52,-1.36 -123.22,-40.83 -139.26,-159.5 -16.05,-118.67 29.53,-203.93 89.6,-255.93 60.08,-52.008 243.96,-127.469 243.96,-127.469 l 28.69,43.519 c -59.86,51.57 -175.57,142.3 -175.57,142.3 3.45,-1.35 21.92,184.77 21.92,184.77"
         inkscape:connector-curvature="0" /><path
         id="path1222"
         style="fill:#f46853;fill-opacity:1;fill-rule:nonzero;stroke:none"
         d="m 2846.54,1497.35 c 0,0 42.25,-1.94 57.1,-62.93 14.85,-60.99 11.41,-137.6 11.41,-137.6 l -241.22,12.12 c 0,0 18.37,182.27 172.71,188.41"
         inkscape:connector-curvature="0" /><path
         id="path1224"
         style="fill:#3f462d;fill-opacity:1;fill-rule:nonzero;stroke:none"
         d="m 3048.59,931.961 c 27.1,-5.59 55.82,-1.492 82.9,-7.152 2.6,-0.528 5.31,-1.239 7.15,-3.2 1.83,-1.961 2.33,-5.57 0.35,-7.589 -1.15,-1.168 -2.78,-1.52 -4.23,-2.2 -1.45,-0.691 -2.91,-2.101 -2.7,-3.711 2.77,-1.23 5.62,-2.5 7.71,-4.757 2.08,-2.262 3.25,-5.762 2.06,-8.813 -1.24,-3.148 -4.48,-4.859 -7.48,-6.109 2.67,-2.301 5.19,-5.258 5.41,-8.969 0.22,-3.699 -3.03,-7.891 -6.43,-7.102 3.04,-3.007 6.25,-6.539 6.3,-11.058 0.06,-5.781 -5.42,-10.571 -10.86,-11.492 -5.44,-0.907 -10.77,1 -15.85,2.902 -15.03,5.598 -30.06,11.211 -45.09,16.809 -11.23,4.191 -22.54,8.41 -32.71,14.82 -13.86,8.719 -25.12,21.18 -36.22,33.488"
         inkscape:connector-curvature="0" /><path
         id="path1226"
         style="fill:#413c47;fill-opacity:1;fill-rule:nonzero;stroke:none"
         d="m 3293.99,535.379 c -24.48,13.672 -48.98,27.351 -73.46,41.043 -4.98,-1.723 -10.16,-3.102 -11.63,-9.25 -0.4,-1.672 -0.12,-3.16 0.48,-4.543 18.02,-9.731 36.04,-19.457 54.06,-29.168 9.38,-5.07 20.38,-13.731 30.69,-6.711 3.04,2.07 3.28,6.719 -0.14,8.629"
         inkscape:connector-curvature="0" /><path
         id="path1228"
         style="fill:#413c47;fill-opacity:1;fill-rule:nonzero;stroke:none"
         d="m 3242.9,523.121 c 9.63,19.34 27.14,34.598 47.62,41.5 5.45,1.84 11.26,3.098 16.95,2.27 9.08,-1.332 16.49,-7.719 23.33,-13.84 20.08,-17.969 40.4,-36.18 55.44,-58.551 1.85,-2.758 3.7,-5.898 3.26,-9.199 -0.3,-2.262 -1.66,-4.262 -3.22,-5.922 -10.05,-10.68 -27,-9.707 -41.55,-7.938 -30.69,3.731 -61.88,7.59 -90.19,20 -7.26,3.168 -14.85,7.5 -17.73,14.891 -4.17,10.68 3.23,22.098 10.24,31.18"
         inkscape:connector-curvature="0" /><path
         id="path1230"
         style="fill:#4a2a27;fill-opacity:1;fill-rule:nonzero;stroke:none"
         d="m 3284.16,514.531 c -1.11,-0.051 -0.46,-2.09 0.63,-1.949 1.09,0.137 1.7,1.309 2.2,2.289 6.17,12.149 25.23,14.859 34.54,4.91 3.98,10.828 11.75,20.239 21.63,26.199 9.42,5.668 22.51,7.79 30.82,0.59 6.04,-5.23 7.81,-13.761 8.83,-21.679 0.88,-6.821 1.47,-13.7 1.76,-20.582 0.1,-2.539 0.14,-5.239 -1.11,-7.457 -1.94,-3.481 -6.3,-4.704 -10.24,-5.364 -19.86,-3.289 -40.68,-0.527 -59,7.832 -10.58,4.828 -20.54,11.539 -31.98,13.7"
         inkscape:connector-curvature="0" /><path
         id="path1232"
         style="fill:#4a2a27;fill-opacity:1;fill-rule:nonzero;stroke:none"
         d="m 3378.33,416.559 c -5.66,7.312 -10.14,16.492 -8.3,25.543 1.85,9.046 12.53,16.367 20.64,11.929 -0.72,4.418 3.16,8.66 7.55,9.489 4.4,0.839 8.92,-1.02 12.5,-3.731 11.03,-8.32 14.41,-23.758 12.65,-37.488 -0.2,-1.59 -0.48,-3.231 -1.29,-4.61 -1.53,-2.582 -4.58,-3.8 -7.49,-4.55 -11.55,-2.95 -24.28,-1 -34.41,5.281"
         inkscape:connector-curvature="0" /><path
         id="path1234"
         style="fill:#4a2a27;fill-opacity:1;fill-rule:nonzero;stroke:none"
         d="m 3341.41,370.641 c -1.25,9.007 3.22,18.3 10.4,23.89 7.17,5.598 16.68,7.711 25.74,6.899 2.21,-0.2 4.5,-0.551 6.6,0.16 3.02,1.031 4.9,3.98 6.65,6.66 14.39,22.129 36.38,39.211 61.38,47.691 12.69,4.289 27.12,6.301 39.15,0.418 6.88,-3.367 12.37,-9.039 17.11,-15.05 14.08,-17.84 22.83,-39.848 24.83,-62.5"
         inkscape:connector-curvature="0" /><path
         id="path1236"
         style="fill:#4a2a27;fill-opacity:1;fill-rule:nonzero;stroke:none"
         d="m 3332.47,386.801 c -10.05,2.621 -20.46,5.281 -30.72,3.597 -10.25,-1.679 -20.36,-8.91 -21.95,-19.179 0,0 43.12,-10.727 133.24,-17.688 90.12,-6.961 178.67,9.059 178.67,9.059 -8.96,29.859 -40.2,51.379 -71.3,49.121"
         inkscape:connector-curvature="0" /><path
         id="path1238"
         style="fill:#777446;fill-opacity:1;fill-rule:nonzero;stroke:none"
         d="m 3457.37,412.711 c -3.76,25.391 -3.58,50.621 2.43,75.719 4.15,17.3 10.98,33.441 12.01,51.402 1.25,21.738 -2.97,43.559 -3.83,65.27 -1.03,25.867 0.21,51.769 1.4,77.609 0.29,6.43 -9.71,6.25 -10,-0.152 -1.18,-25.848 -2.42,-51.75 -1.4,-77.618 0.91,-22.832 5.64,-45.882 3.35,-68.722 -2.13,-21.278 -11.32,-41.008 -14.48,-62.219 -3.07,-20.52 -2.51,-40.949 0.52,-61.441 0.93,-6.278 10.94,-6.207 10,0.152"
         inkscape:connector-curvature="0" /><path
         id="path1240"
         style="fill:#777446;fill-opacity:1;fill-rule:nonzero;stroke:none"
         d="m 3462.66,637.379 c -22.63,14.641 -44.33,38 -40.83,64.73 3.49,26.653 30,43.641 42.37,67.512 19.54,-26.141 39.95,-54.742 40.18,-87.371 0.08,-12.129 -2.98,-24.719 -10.92,-33.891 -7.94,-9.168 -21.38,-14.078 -32.74,-9.82"
         inkscape:connector-curvature="0" /><path
         id="path1242"
         style="fill:#777446;fill-opacity:1;fill-rule:nonzero;stroke:none"
         d="m 3472.06,563.809 c 12.67,37.941 53.59,47.511 88.82,51.711 6.33,0.75 6.24,10.761 -0.15,10 -40.22,-4.801 -84.13,-16.579 -98.35,-59.2 -2.04,-6.109 7.65,-8.59 9.68,-2.511"
         inkscape:connector-curvature="0" /><path
         id="path1244"
         style="fill:#777446;fill-opacity:1;fill-rule:nonzero;stroke:none"
         d="m 3523.37,611.031 c -2.39,-16.32 8.62,-33.57 24.43,-38.281 23.85,-7.078 46.53,11.93 69.33,21.891 12.48,5.461 25.92,8.281 39.25,11.058 -22.68,22.832 -56.09,31.52 -88.19,33.75 -9.93,0.703 -20.36,0.77 -29.24,-3.719 -8.88,-4.492 -15.51,-14.898 -12.55,-24.398"
         inkscape:connector-curvature="0" /><path
         id="path1246"
         style="fill:#777446;fill-opacity:1;fill-rule:nonzero;stroke:none"
         d="m 3465.57,556.191 c -5.74,-6.25 -38.29,35.391 -40.59,38.77 -10.05,14.789 -18.97,30.371 -28.24,45.66 -3.34,5.488 -11.91,0.34 -8.56,-5.18 13.51,-22.261 26.02,-46.109 43.55,-65.57 7.02,-7.789 29.95,-32.691 41.02,-20.641 4.35,4.731 -2.81,11.711 -7.18,6.961"
         inkscape:connector-curvature="0" /><path
         id="path1248"
         style="fill:#777446;fill-opacity:1;fill-rule:nonzero;stroke:none"
         d="m 3416.19,586.52 c -35.35,-1.059 -72.38,21.992 -79.62,56.601 -3.57,17.059 -0.17,35.758 -7.97,51.34 -1.45,2.891 -3.23,6.469 -1.33,9.078 1.4,1.922 4.12,2.191 6.5,2.191 31.18,0.059 60.19,-16.429 83.86,-36.742 12.73,-10.906 25.05,-24.34 27.07,-40.976 2.01,-16.641 -11.49,-35.672 -28.07,-33.203"
         inkscape:connector-curvature="0" /><path
         id="path1250"
         style="fill:#3f462d;fill-opacity:1;fill-rule:nonzero;stroke:none"
         d="m 3073.44,924.301 -92.13,102.289 -70.49,-95.238 142.3,-57.43 20.32,50.379"
         inkscape:connector-curvature="0" /><path
         id="path1252"
         style="fill:#333725;fill-opacity:1;fill-rule:nonzero;stroke:none"
         d="m 2772.17,405.398 c 1.59,5.032 24.2,162.063 24.2,162.063 l 165.87,-55.813 -110.05,-106.687 47.09,-27.621 -133.31,-2.039 6.2,30.097"
         inkscape:connector-curvature="0" /><path
         id="path1254"
         style="fill:#662820;fill-opacity:1;fill-rule:nonzero;stroke:none"
         d="m 2236.06,582.891 2.25,-146.871 c -67.93,1.75 -135.8,5.511 -203.5,11.48 l -0.78,51 c 47.99,27.43 87.3,72.34 141.64,83.672 19.94,4.109 40.15,3.418 60.39,0.719"
         inkscape:connector-curvature="0" /><path
         id="path1256"
         style="fill:#333725;fill-opacity:1;fill-rule:nonzero;stroke:none"
         d="m 2053.29,436.082 -120.07,3.168 -78.19,-9.531 52.38,62.472 21.87,-13 135.35,87.079 -11.34,-130.188"
         inkscape:connector-curvature="0" /><path
         id="path1258"
         style="fill:#e7513b;fill-opacity:1;fill-rule:nonzero;stroke:none"
         d="m 2803.45,1490.11 c 44.22,2.82 77.21,-35.38 97.08,-69.49 3.23,-5.56 11.88,-0.54 8.64,5.04 -10.88,18.67 -22.37,37.74 -40.13,50.71 -17.32,12.65 -43.92,25.12 -65.59,23.74 -6.39,-0.41 -6.44,-10.41 0,-10"
         inkscape:connector-curvature="0" /><path
         id="path1260"
         style="fill:#e7513b;fill-opacity:1;fill-rule:nonzero;stroke:none"
         d="m 2869.04,1464.66 c 9.16,2.96 18.2,6.25 27.12,9.85 5.89,2.38 3.31,12.06 -2.66,9.65 -8.92,-3.61 -17.96,-6.89 -27.12,-9.85 -6.1,-1.98 -3.49,-11.63 2.66,-9.65"
         inkscape:connector-curvature="0" /><path
         id="path1262"
         style="fill:#e7513b;fill-opacity:1;fill-rule:nonzero;stroke:none"
         d="m 2666.13,1269.22 c -50.76,-10.7 -104.77,-5.39 -152.47,14.97 6.33,-20.31 26.32,-32.48 41.65,-47.24 3.6,-3.45 7.26,-8.39 5.34,-12.99 -1.03,-2.5 -3.49,-4.12 -6.02,-5.06 -15.7,-5.88 -34.7,8.88 -49.24,0.51 42.14,-38.34 99.26,-59.77 156.22,-58.62 5.23,0.11 11.89,1.61 12.65,6.79"
         inkscape:connector-curvature="0" /><path
         id="path1264"
         style="fill:#2f1919;fill-opacity:1;fill-rule:nonzero;stroke:none"
         d="m 3063.08,1677.75 c -28.57,-20.97 -58.71,-40.86 -92.64,-51.11 -33.93,-10.26 -72.47,-9.89 -102.98,8.15 7.57,17.51 26.14,29.68 45.22,29.62 -21.31,-0.19 -43.4,-0.25 -62.86,8.43 -19.47,8.69 -35.61,28.7 -32.71,49.83 2.91,21.11 31.25,36.16 47.39,22.23 -12.01,13.71 -24.28,27.86 -30.49,45 -6.22,17.14 -5.11,38.2 7.51,51.35 12.63,13.15 38,13.17 47.09,-2.63 -14.63,11.07 -15.46,33.88 -6.83,50.07 8.62,16.18 24.18,27.31 39.21,37.82 3.18,2.24 6.73,4.57 10.62,4.23 5.38,-0.48 8.85,-5.76 11.5,-10.48 7.39,-13.19 14.8,-26.39 22.19,-39.59 -8.7,26.01 8.75,58.2 35.71,63.23 26.95,5.03 55.54,-21.03 51.24,-48.11 6.79,19.66 14.08,40.11 29.15,54.43 15.07,14.33 40.46,20.13 56.69,7.13 16.98,-13.59 16.25,-39.17 13.98,-60.79 3.64,25.09 35.74,42.24 57.35,28.98 21.62,-13.26 18.11,-52.88 -6.25,-59.92 11.3,5.52 24.45,-8.22 22.81,-20.68 -1.64,-12.46 -12.33,-21.68 -23.16,-28.07 -10.83,-6.38 -22.89,-11.5 -30.95,-21.14 8.85,6.05 18.06,12.24 28.61,14.1 10.56,1.86 22.89,-1.83 27.78,-11.37 5.31,-10.35 0.22,-22.89 -5.8,-32.85 -21.92,-36.28 -57.04,-64.39 -97.25,-77.83"
         inkscape:connector-curvature="0" /></g></g></svg>