<?xml version="1.0" encoding="UTF-8" standalone="no"?>
<svg
   xmlns:dc="http://purl.org/dc/elements/1.1/"
   xmlns:cc="http://creativecommons.org/ns#"
   xmlns:rdf="http://www.w3.org/1999/02/22-rdf-syntax-ns#"
   xmlns:svg="http://www.w3.org/2000/svg"
   xmlns="http://www.w3.org/2000/svg"
   xmlns:sodipodi="http://sodipodi.sourceforge.net/DTD/sodipodi-0.dtd"
   xmlns:inkscape="http://www.inkscape.org/namespaces/inkscape"
   viewBox="0 0 100 93.70327"
   height="93.70327"
   width="100"
   xml:space="preserve"
   id="svg2"
   version="1.1"
   sodipodi:docname="7972.svg"
   inkscape:version="0.92.1 r15371"><sodipodi:namedview
     pagecolor="#ffffff"
     bordercolor="#666666"
     borderopacity="1"
     objecttolerance="10"
     gridtolerance="10"
     guidetolerance="10"
     inkscape:pageopacity="0"
     inkscape:pageshadow="2"
     inkscape:window-width="1005"
     inkscape:window-height="513"
     id="namedview1541"
     showgrid="false"
     inkscape:zoom="1.82141"
     inkscape:cx="31.724535"
     inkscape:cy="74.767649"
     inkscape:window-x="324"
     inkscape:window-y="84"
     inkscape:window-maximized="0"
     inkscape:current-layer="g12" /><metadata
     id="metadata8"><rdf:RDF><cc:Work
         rdf:about=""><dc:format>image/svg+xml</dc:format><dc:type
           rdf:resource="http://purl.org/dc/dcmitype/StillImage" /></cc:Work></rdf:RDF></metadata><defs
     id="defs6" /><g
     transform="matrix(1.3333333,0,0,-1.3333333,-3815.334,606.95371)"
     id="g10"><g
       transform="scale(0.1)"
       id="g12"><g
         transform="matrix(0.22067911,0,0,0.22067911,25767.936,3849.3784)"
         id="g466"><path
           inkscape:connector-curvature="0"
           id="path468"
           style="fill:#db921d;fill-opacity:1;fill-rule:nonzero;stroke:none"
           d="m 16300,0 c -6.5,228.016 -349.2,411.748 -771.4,411.748 -104.3,0 -203.8,-11.294 -294.5,-31.633 -142,165.954 -441.6,280.355 -788.4,280.355 -296.8,0 -559,-83.918 -717.4,-212.226 -17,0.678 -33.9,1.203 -51.1,1.203 -403.6,0 -735.5,-196.961 -775.8,-449.447 H 16300" /></g><g
         transform="matrix(0.20566433,0,0,0.20566433,25767.936,3849.3784)"
         id="g470"><path
           inkscape:connector-curvature="0"
           id="path472"
           style="fill:#46290f;fill-opacity:1;fill-rule:nonzero;stroke:none"
           d="m 16300,2225.14 c -253.8,-74 -442.7,-617.13 -548.2,-1036.11 -80.4,-320.117 -120.5,-544.751 -103.1,-848.769 h -253.6 c -3.1,247.749 34.9,502.566 126,761.029 8.6,573.87 -82.4,831.16 -215.5,980 -16.5,18.51 -33.7,35.34 -51.3,50.88 -151.7,133.3 -342.9,173.19 -503.8,370.78 -19.1,23.51 19,47.58 38,25.87 175.3,-200.23 371,-213.75 530.5,-337.24 17.6,-13.51 34.7,-28.44 51,-45.04 120.6,-120.57 213.8,-332.02 251,-784.88 350.6,914.98 513.2,859.44 448.1,1698.9 7.6,3.7 15.5,7.62 22.9,11.5 66.3,-208.54 80.5,-548.8 -28.2,-948.92 70.1,85.67 151,121.46 226.9,135.6 3.2,-11.16 6.2,-22.44 9.3,-33.6 v 0" /></g><g
         transform="matrix(0.19220837,0,0,0.19220837,25767.936,3849.3784)"
         id="g474"><path
           inkscape:connector-curvature="0"
           id="path476"
           style="fill:#46290f;fill-opacity:1;fill-rule:nonzero;stroke:none"
           d="m 16230.6,2439.92 c 0,0 -9,234.9 -85.1,336.41 h 42.5 c 0,0 112,-194.56 98.2,-465.36 l -69.8,101.51 14.2,27.44" /></g><g
         transform="matrix(0.20691162,0,0,0.20691162,25767.936,3849.3784)"
         id="g478"><path
           inkscape:connector-curvature="0"
           id="path480"
           style="fill:#46290f;fill-opacity:1;fill-rule:nonzero;stroke:none"
           d="m 16035.3,2530.3 c 0,0 147.9,17.85 228.3,213.8 h 36.4 c 0,0 -41.3,-213.74 -272.6,-282.89 l 7.9,69.09" /></g><g
         transform="matrix(0.20313282,0,0,0.20313282,25767.936,3849.3784)"
         id="g482"><path
           inkscape:connector-curvature="0"
           id="path484"
           style="fill:#46290f;fill-opacity:1;fill-rule:nonzero;stroke:none"
           d="m 15957.8,3459.68 c 0,0 -28.2,-467.76 342.2,-664.52 v -103.55 c -400.7,218.29 -422.3,709.34 -342.2,768.07" /></g><g
         transform="matrix(0.19972557,0,0,0.19972557,25767.936,3849.3784)"
         id="g486"><path
           inkscape:connector-curvature="0"
           id="path488"
           style="fill:#7a4010;fill-opacity:1;fill-rule:nonzero;stroke:none"
           d="M 15715.1,350.379 H 15513 c 18.7,450.093 -60,850.561 -178.4,1169.511 -165.5,445.93 -408.3,732.24 -569.9,771.41 3.2,11.5 6.2,23.11 9.4,34.61 90,-14.56 161.6,-51.42 233.7,-139.64 -111.8,412.03 -97.3,762.46 -29.1,977.14 7.8,-3.99 15.7,-8.03 23.7,-11.85 -87.7,-1130.92 215.4,-902.37 456.7,-1602.03 49.4,823.4 561.1,746.91 831.4,1021.61 4.6,-18.31 4.5,-18.31 9.5,-36.51 -297.6,-282.73 -670.5,-131.43 -730,-1080.77 -10.9,-172.51 127.7,-496.196 145.1,-1103.481" /></g><g
         transform="matrix(0.19611754,0,0,0.19611754,25767.936,3849.3784)"
         id="g490"><path
           inkscape:connector-curvature="0"
           id="path492"
           style="fill:#7a4010;fill-opacity:1;fill-rule:nonzero;stroke:none"
           d="m 16230.5,2384.46 c 0.5,12.12 0,178.09 69.5,325.18 h -41.8 c 0,0 -93.8,-163.15 -97.1,-397.54 29.8,26.06 33.8,72.36 69.4,72.36 v 0" /></g><g
         transform="matrix(0.19927096,0,0,0.19927096,25767.936,3849.3784)"
         id="g494"><path
           inkscape:connector-curvature="0"
           id="path496"
           style="fill:#7a4010;fill-opacity:1;fill-rule:nonzero;stroke:none"
           d="m 16259.6,2495.07 c 0.3,7.07 0,103.42 40.4,188.88 h -24.3 c 0,0 -54.4,-94.73 -56.4,-230.91 17.3,15.17 19.7,42.03 40.3,42.03 v 0" /></g><g
         transform="matrix(0.21199193,0,0,0.21199193,25767.936,3849.3784)"
         id="g498"><path
           inkscape:connector-curvature="0"
           id="path500"
           style="fill:#7a4010;fill-opacity:1;fill-rule:nonzero;stroke:none"
           d="m 15981.3,3023.59 c 94.3,-331.8 74.3,-1026.46 -223.9,-1786.82 -238,-606.604 -469.9,493.34 -478,706.64 h -32.9 c -15.5,-590.66 351,-1064.778 352.1,-1067.99 32.6,-150.275 43.4,-345.563 42.4,-545.314 h 132.1 c 22.8,565.397 31.4,737.064 53.6,853.974 0,-54.43 473.3,1338.71 154.6,1839.51 v 0" /></g><g
         transform="matrix(0.21443228,0,0,0.21443228,25767.936,3849.3784)"
         id="g502"><path
           inkscape:connector-curvature="0"
           id="path504"
           style="fill:#7a4010;fill-opacity:1;fill-rule:nonzero;stroke:none"
           d="m 15879.7,2208.79 c 0,0 363.4,-17.81 391.8,437.24 h 28.5 c 0,-307.03 -175.5,-493.04 -420.3,-542.28 v 105.04" /></g><g
         transform="matrix(0.19874827,0,0,0.19874827,25767.936,3849.3784)"
         id="g506"><path
           inkscape:connector-curvature="0"
           id="path508"
           style="fill:#7a4010;fill-opacity:1;fill-rule:nonzero;stroke:none"
           d="m 16193.2,352.103 h -175.8 c 35.8,835.467 246.7,967.307 282.6,878.307 -81.4,-323.884 -125.2,-555.522 -106.8,-878.307" /></g><g
         transform="matrix(0.19255913,0,0,0.19255913,25767.936,3849.3784)"
         id="g510"><path
           inkscape:connector-curvature="0"
           id="path512"
           style="fill:#a06610;fill-opacity:1;fill-rule:nonzero;stroke:none"
           d="m 16090.5,363.421 -221.4,-159.748 -284.3,79.873 -357.1,-250.8891 357.1,165.3821 320.6,-115.5283 394.6,280.9103 h -209.5" /></g><g
         transform="matrix(0.20700161,0,0,0.20700161,25767.936,3849.3784)"
         id="g514"><path
           inkscape:connector-curvature="0"
           id="path516"
           style="fill:#a06610;fill-opacity:1;fill-rule:nonzero;stroke:none"
           d="m 15378.8,338.063 304.6,-146.875 198.9,73.466 L 16300,0 l -364.7,352.055 -241.5,-68.728 -146.2,54.736 h -168.8" /></g></g></g></svg>